# Blender v3.0.1 OBJ File: 'Minecraft Monsters.blend'
# www.blender.org
mtllib Head.mtl
o piglin_head.001_Cube.161
v 0.800000 0.000000 1.000000
v 0.800000 1.600000 1.000000
v -0.800000 0.000000 1.000000
v -0.800000 1.600000 1.000000
v 0.800000 0.000000 -1.000000
v 0.800000 1.600000 -1.000000
v -0.800000 0.000000 -1.000000
v -0.800000 1.600000 -1.000000
v 0.998351 0.003516 0.400000
v 0.998351 0.803516 0.400000
v 0.798351 0.003516 0.400000
v 0.798351 0.803516 0.400000
v 0.998351 0.003516 -0.400000
v 0.998351 0.803516 -0.400000
v 0.798351 0.003516 -0.400000
v 0.798351 0.803516 -0.400000
v 0.977110 0.001238 -0.398849
v 0.977110 0.401238 -0.398849
v 0.777110 0.001238 -0.398849
v 0.777110 0.401238 -0.398849
v 0.977110 0.001238 -0.598849
v 0.977110 0.401238 -0.598849
v 0.777110 0.001238 -0.598849
v 0.777110 0.401238 -0.598849
v 0.977110 0.001238 0.598849
v 0.977110 0.401238 0.598849
v 0.777110 0.001238 0.598849
v 0.777110 0.401238 0.598849
v 0.977110 0.001238 0.398849
v 0.977110 0.401238 0.398849
v 0.777110 0.001238 0.398849
v 0.777110 0.401238 0.398849
vt 0.125000 0.750000
vt 0.000000 0.750000
vt 0.000000 0.875000
vt 0.125000 0.875000
vt 0.562500 0.750000
vt 0.406250 0.750000
vt 0.406250 0.875000
vt 0.562500 0.875000
vt 0.281250 0.750000
vt 0.281250 0.875000
vt 0.437500 1.000000
vt 0.437500 0.875000
vt 0.281250 0.875000
vt 0.281250 1.000000
vt 0.281250 1.000000
vt 0.125000 1.000000
vt 0.500000 0.906250
vt 0.500000 0.968750
vt 0.484375 0.968750
vt 0.484375 0.906250
vt 0.640625 0.906250
vt 0.640625 0.968750
vt 0.578125 0.968750
vt 0.578125 0.906250
vt 0.562500 0.968750
vt 0.562500 0.906250
vt 0.625000 0.984375
vt 0.562500 0.984375
vt 0.562500 0.968750
vt 0.625000 0.968750
vt 0.562500 0.984375
vt 0.500000 0.984375
vt 0.046875 0.953125
vt 0.046875 0.984375
vt 0.031250 0.984375
vt 0.031250 0.953125
vt 0.093750 0.953125
vt 0.093750 0.984375
vt 0.078125 0.984375
vt 0.078125 0.953125
vt 0.062500 0.984375
vt 0.062500 0.953125
vt 0.078125 1.000000
vt 0.062500 1.000000
vt 0.062500 0.984375
vt 0.078125 0.984375
vt 0.062500 1.000000
vt 0.046875 1.000000
vt 0.046875 0.890625
vt 0.046875 0.921875
vt 0.031250 0.921875
vt 0.031250 0.890625
vt 0.093750 0.890625
vt 0.093750 0.921875
vt 0.078125 0.921875
vt 0.078125 0.890625
vt 0.062500 0.921875
vt 0.062500 0.890625
vt 0.078125 0.937500
vt 0.062500 0.937500
vt 0.062500 0.921875
vt 0.078125 0.921875
vt 0.062500 0.937500
vt 0.046875 0.937500
vn 0.0000 0.0000 -1.0000
vn 1.0000 0.0000 0.0000
vn -0.0000 0.0000 1.0000
vn -1.0000 0.0000 -0.0000
vn 0.0000 1.0000 0.0000
vn 0.0000 -1.0000 0.0000
usemtl Materials/Piglin.png
s off
f 1/1/1 3/2/1 4/3/1 2/4/1
f 3/5/2 7/6/2 8/7/2 4/8/2
f 7/6/3 5/9/3 6/10/3 8/7/3
f 5/9/4 1/1/4 2/4/4 6/10/4
f 3/11/5 1/12/5 5/13/5 7/14/5
f 8/15/6 6/10/6 2/4/6 4/16/6
f 9/17/3 10/18/3 12/19/3 11/20/3
f 11/21/4 12/22/4 16/23/4 15/24/4
f 15/24/1 16/23/1 14/25/1 13/26/1
f 13/26/2 14/25/2 10/18/2 9/17/2
f 11/27/6 15/28/6 13/29/6 9/30/6
f 16/31/5 12/32/5 10/18/5 14/25/5
f 17/33/3 18/34/3 20/35/3 19/36/3
f 19/37/4 20/38/4 24/39/4 23/40/4
f 23/40/1 24/39/1 22/41/1 21/42/1
f 21/42/2 22/41/2 18/34/2 17/33/2
f 19/43/6 23/44/6 21/45/6 17/46/6
f 24/47/5 20/48/5 18/34/5 22/41/5
f 25/49/3 26/50/3 28/51/3 27/52/3
f 27/53/4 28/54/4 32/55/4 31/56/4
f 31/56/1 32/55/1 30/57/1 29/58/1
f 29/58/2 30/57/2 26/50/2 25/49/2
f 27/59/6 31/60/6 29/61/6 25/62/6
f 32/63/5 28/64/5 26/50/5 30/57/5
