# Blender v2.83.3 OBJ File: 'Minecraft Monsters.blend'
# www.blender.org
mtllib ArmGib.mtl
v 0.200000 -3.000000 0.200000
v 0.200000 3.000000 0.200000
v -0.200000 -3.000000 0.200000
v -0.200000 3.000000 0.200000
v 0.200000 -3.000000 -0.200000
v 0.200000 3.000000 -0.200000
v -0.200000 -3.000000 -0.200000
v -0.200000 3.000000 -0.200000
vt 0.906250 -0.000000
vt 0.906250 0.937500
vt 0.875000 0.937500
vt 0.875000 -0.000000
vt 1.000000 0.000000
vt 1.000000 0.937500
vt 0.968750 0.937500
vt 0.968750 0.000000
vt 0.937500 0.937500
vt 0.937500 -0.000000
vt 0.968750 1.000000
vt 0.937500 1.000000
vt 0.937500 0.937500
vt 0.968750 0.937500
vt 0.937500 1.000000
vt 0.906250 1.000000
vn -0.0000 0.0000 1.0000
vn -1.0000 0.0000 -0.0000
vn 0.0000 0.0000 -1.0000
vn 1.0000 0.0000 0.0000
vn 0.0000 -1.0000 0.0000
vn 0.0000 1.0000 0.0000
usemtl Materials/Enderman.png
s off
f 1/1/1 2/2/1 4/3/1 3/4/1
f 3/5/2 4/6/2 8/7/2 7/8/2
f 7/8/3 8/7/3 6/9/3 5/10/3
f 5/10/4 6/9/4 2/2/4 1/1/4
f 3/11/5 7/12/5 5/13/5 1/14/5
f 8/15/6 4/16/6 2/2/6 6/9/6
