# Blender v3.0.1 OBJ File: 'Minecraft Monsters.blend'
# www.blender.org
mtllib HatGib.mtl
o hat4.004_Cube.023
v 0.100000 0.782755 0.136325
v 0.100000 1.175406 0.060001
v -0.100000 0.782755 0.136325
v -0.100000 1.175406 0.060001
v 0.100000 0.744593 -0.060001
v 0.100000 1.137244 -0.136325
v -0.100000 0.744593 -0.060001
v -0.100000 1.137244 -0.136325
v 1.000000 -1.100000 1.000000
v 1.000000 -0.700000 1.000000
v -1.000000 -1.100000 1.000000
v -1.000000 -0.700000 1.000000
v 1.000000 -1.100000 -1.000000
v 1.000000 -0.700000 -1.000000
v -1.000000 -1.100000 -1.000000
v -1.000000 -0.700000 -1.000000
v 0.700000 -0.715327 0.713533
v 0.700000 0.084186 0.685614
v -0.700000 -0.715327 0.713533
v -0.700000 0.084186 0.685614
v 0.700000 -0.764186 -0.685614
v 0.700000 0.035327 -0.713533
v -0.700000 -0.764186 -0.685614
v -0.700000 0.035327 -0.713533
v 0.400000 0.061483 0.420386
v 0.400000 0.860386 0.378518
v -0.400000 0.061483 0.420386
v -0.400000 0.860386 0.378517
v 0.400000 0.019614 -0.378517
v 0.400000 0.818517 -0.420386
v -0.400000 0.019614 -0.378517
v -0.400000 0.818517 -0.420386
vt 0.015625 0.234375
vt 0.015625 0.250000
vt -0.000000 0.250000
vt -0.000000 0.234375
vt 0.062500 0.234375
vt 0.062500 0.250000
vt 0.046875 0.250000
vt 0.046875 0.234375
vt 0.031250 0.250000
vt 0.031250 0.234375
vt 0.046875 0.257812
vt 0.031250 0.257812
vt 0.031250 0.250000
vt 0.046875 0.250000
vt 0.031250 0.257812
vt 0.015625 0.257812
vt 0.156250 0.406250
vt 0.156250 0.421875
vt -0.000000 0.421875
vt -0.000000 0.406250
vt 0.625000 0.406250
vt 0.625000 0.421875
vt 0.468750 0.421875
vt 0.468750 0.406250
vt 0.312500 0.421875
vt 0.312500 0.406250
vt 0.468750 0.500000
vt 0.312500 0.500000
vt 0.312500 0.421875
vt 0.468750 0.421875
vt 0.312500 0.500000
vt 0.156250 0.500000
vt 0.109375 0.320312
vt 0.109375 0.351562
vt -0.000000 0.351562
vt -0.000000 0.320312
vt 0.437500 0.320312
vt 0.437500 0.351562
vt 0.328125 0.351562
vt 0.328125 0.320312
vt 0.218750 0.351562
vt 0.218750 0.320312
vt 0.328125 0.406250
vt 0.218750 0.406250
vt 0.218750 0.351562
vt 0.328125 0.351562
vt 0.218750 0.406250
vt 0.109375 0.406250
vt 0.062500 0.257812
vt 0.062500 0.289062
vt 0.000000 0.289062
vt 0.000000 0.257812
vt 0.250000 0.257812
vt 0.250000 0.289062
vt 0.187500 0.289062
vt 0.187500 0.257812
vt 0.125000 0.289062
vt 0.125000 0.257812
vt 0.187500 0.320312
vt 0.125000 0.320312
vt 0.125000 0.289062
vt 0.187500 0.289062
vt 0.125000 0.320312
vt 0.062500 0.320312
vn 0.0000 0.1908 0.9816
vn -1.0000 -0.0000 -0.0000
vn 0.0000 -0.1908 -0.9816
vn 1.0000 0.0000 0.0000
vn -0.0000 -0.9816 0.1908
vn 0.0000 0.9816 -0.1908
vn -0.0000 0.0000 1.0000
vn 0.0000 -0.0000 -1.0000
vn 0.0000 -1.0000 0.0000
vn 0.0000 1.0000 0.0000
vn -0.0000 0.0349 0.9994
vn 0.0000 -0.0349 -0.9994
vn -0.0000 -0.9994 0.0349
vn 0.0000 0.9994 -0.0349
vn -0.0000 0.0523 0.9986
vn 0.0000 -0.0523 -0.9986
vn -0.0000 -0.9986 0.0523
vn 0.0000 0.9986 -0.0523
usemtl Materials/Witch.png
s off
f 1/1/1 2/2/1 4/3/1 3/4/1
f 3/5/2 4/6/2 8/7/2 7/8/2
f 7/8/3 8/7/3 6/9/3 5/10/3
f 5/10/4 6/9/4 2/2/4 1/1/4
f 3/11/5 7/12/5 5/13/5 1/14/5
f 8/15/6 4/16/6 2/2/6 6/9/6
f 9/17/7 10/18/7 12/19/7 11/20/7
f 11/21/2 12/22/2 16/23/2 15/24/2
f 15/24/8 16/23/8 14/25/8 13/26/8
f 13/26/4 14/25/4 10/18/4 9/17/4
f 11/27/9 15/28/9 13/29/9 9/30/9
f 16/31/10 12/32/10 10/18/10 14/25/10
f 17/33/11 18/34/11 20/35/11 19/36/11
f 19/37/2 20/38/2 24/39/2 23/40/2
f 23/40/12 24/39/12 22/41/12 21/42/12
f 21/42/4 22/41/4 18/34/4 17/33/4
f 19/43/13 23/44/13 21/45/13 17/46/13
f 24/47/14 20/48/14 18/34/14 22/41/14
f 25/49/15 26/50/15 28/51/15 27/52/15
f 27/53/2 28/54/2 32/55/2 31/56/2
f 31/56/16 32/55/16 30/57/16 29/58/16
f 29/58/4 30/57/4 26/50/4 25/49/4
f 27/59/17 31/60/17 29/61/17 25/62/17
f 32/63/18 28/64/18 26/50/18 30/57/18
