# Blender v3.0.1 OBJ File: 'Minecraft Monsters.blend'
# www.blender.org
mtllib Head.mtl
o hat4.003_Cube.230
v 0.100000 3.582755 0.136324
v 0.100000 3.975406 0.060001
v -0.100000 3.582755 0.136324
v -0.100000 3.975406 0.060001
v 0.100000 3.544593 -0.060001
v 0.100000 3.937244 -0.136325
v -0.100000 3.544593 -0.060001
v -0.100000 3.937244 -0.136325
v 1.000000 1.700000 1.000000
v 1.000000 2.100000 1.000000
v -1.000000 1.700000 1.000000
v -1.000000 2.100000 1.000000
v 1.000000 1.700000 -1.000000
v 1.000000 2.100000 -1.000000
v -1.000000 1.700000 -1.000000
v -1.000000 2.100000 -1.000000
v 0.700000 2.084673 0.713533
v 0.700000 2.884186 0.685614
v -0.700000 2.084673 0.713533
v -0.700000 2.884186 0.685614
v 0.700000 2.035814 -0.685614
v 0.700000 2.835327 -0.713533
v -0.700000 2.035814 -0.685614
v -0.700000 2.835327 -0.713533
v 0.400000 2.861482 0.420386
v 0.400000 3.660386 0.378517
v -0.400000 2.861482 0.420386
v -0.400000 3.660386 0.378517
v 0.400000 2.819613 -0.378517
v 0.400000 3.618517 -0.420386
v -0.400000 2.819613 -0.378517
v -0.400000 3.618517 -0.420386
vt 0.015625 0.234375
vt 0.015625 0.250000
vt -0.000000 0.250000
vt -0.000000 0.234375
vt 0.062500 0.234375
vt 0.062500 0.250000
vt 0.046875 0.250000
vt 0.046875 0.234375
vt 0.031250 0.250000
vt 0.031250 0.234375
vt 0.046875 0.257812
vt 0.031250 0.257812
vt 0.031250 0.250000
vt 0.046875 0.250000
vt 0.031250 0.257812
vt 0.015625 0.257812
vt 0.156250 0.406250
vt 0.156250 0.421875
vt -0.000000 0.421875
vt -0.000000 0.406250
vt 0.625000 0.406250
vt 0.625000 0.421875
vt 0.468750 0.421875
vt 0.468750 0.406250
vt 0.312500 0.421875
vt 0.312500 0.406250
vt 0.468750 0.500000
vt 0.312500 0.500000
vt 0.312500 0.421875
vt 0.468750 0.421875
vt 0.312500 0.500000
vt 0.156250 0.500000
vt 0.109375 0.320312
vt 0.109375 0.351562
vt -0.000000 0.351562
vt -0.000000 0.320312
vt 0.437500 0.320312
vt 0.437500 0.351562
vt 0.328125 0.351562
vt 0.328125 0.320312
vt 0.218750 0.351562
vt 0.218750 0.320312
vt 0.328125 0.406250
vt 0.218750 0.406250
vt 0.218750 0.351562
vt 0.328125 0.351562
vt 0.218750 0.406250
vt 0.109375 0.406250
vt 0.062500 0.257812
vt 0.062500 0.289062
vt 0.000000 0.289062
vt 0.000000 0.257812
vt 0.250000 0.257812
vt 0.250000 0.289062
vt 0.187500 0.289062
vt 0.187500 0.257812
vt 0.125000 0.289062
vt 0.125000 0.257812
vt 0.187500 0.320312
vt 0.125000 0.320312
vt 0.125000 0.289062
vt 0.187500 0.289062
vt 0.125000 0.320312
vt 0.062500 0.320312
vn 0.0000 0.1908 0.9816
vn -1.0000 0.0000 -0.0000
vn 0.0000 -0.1908 -0.9816
vn 1.0000 0.0000 0.0000
vn 0.0000 -0.9816 0.1908
vn 0.0000 0.9816 -0.1908
vn -0.0000 -0.0000 1.0000
vn 0.0000 0.0000 -1.0000
vn 0.0000 -1.0000 0.0000
vn 0.0000 1.0000 0.0000
vn -0.0000 0.0349 0.9994
vn 0.0000 -0.0349 -0.9994
vn -0.0000 -0.9994 0.0349
vn 0.0000 0.9994 -0.0349
vn -0.0000 0.0523 0.9986
vn 0.0000 -0.0523 -0.9986
vn -0.0000 -0.9986 0.0523
vn 0.0000 0.9986 -0.0523
usemtl Materials/Witch.png
s off
f 1/1/1 2/2/1 4/3/1 3/4/1
f 3/5/2 4/6/2 8/7/2 7/8/2
f 7/8/3 8/7/3 6/9/3 5/10/3
f 5/10/4 6/9/4 2/2/4 1/1/4
f 3/11/5 7/12/5 5/13/5 1/14/5
f 8/15/6 4/16/6 2/2/6 6/9/6
f 9/17/7 10/18/7 12/19/7 11/20/7
f 11/21/2 12/22/2 16/23/2 15/24/2
f 15/24/8 16/23/8 14/25/8 13/26/8
f 13/26/4 14/25/4 10/18/4 9/17/4
f 11/27/9 15/28/9 13/29/9 9/30/9
f 16/31/10 12/32/10 10/18/10 14/25/10
f 17/33/11 18/34/11 20/35/11 19/36/11
f 19/37/2 20/38/2 24/39/2 23/40/2
f 23/40/12 24/39/12 22/41/12 21/42/12
f 21/42/4 22/41/4 18/34/4 17/33/4
f 19/43/13 23/44/13 21/45/13 17/46/13
f 24/47/14 20/48/14 18/34/14 22/41/14
f 25/49/15 26/50/15 28/51/15 27/52/15
f 27/53/2 28/54/2 32/55/2 31/56/2
f 31/56/16 32/55/16 30/57/16 29/58/16
f 29/58/4 30/57/4 26/50/4 25/49/4
f 27/59/17 31/60/17 29/61/17 25/62/17
f 32/63/18 28/64/18 26/50/18 30/57/18
o head.005_Cube.231
v 0.800000 0.000000 0.800000
v 0.800000 2.000000 0.800000
v -0.800000 0.000000 0.800000
v -0.800000 2.000000 0.800000
v 0.800000 0.000000 -0.800000
v 0.800000 2.000000 -0.800000
v -0.800000 0.000000 -0.800000
v -0.800000 2.000000 -0.800000
vt 0.125000 0.859375
vt 0.125000 0.937500
vt 0.000000 0.937500
vt 0.000000 0.859375
vt 0.500000 0.859375
vt 0.500000 0.937500
vt 0.375000 0.937500
vt 0.375000 0.859375
vt 0.250000 0.937500
vt 0.250000 0.859375
vt 0.375000 1.000000
vt 0.250000 1.000000
vt 0.250000 0.937500
vt 0.375000 0.937500
vt 0.250000 1.000000
vt 0.125000 1.000000
vn -0.0000 0.0000 1.0000
vn -1.0000 0.0000 -0.0000
vn 0.0000 0.0000 -1.0000
vn 1.0000 0.0000 0.0000
vn 0.0000 -1.0000 0.0000
vn 0.0000 1.0000 0.0000
usemtl Materials/Witch.png
s off
f 33/65/19 34/66/19 36/67/19 35/68/19
f 35/69/20 36/70/20 40/71/20 39/72/20
f 39/72/21 40/71/21 38/73/21 37/74/21
f 37/74/22 38/73/22 34/66/22 33/65/22
f 35/75/23 39/76/23 37/77/23 33/78/23
f 40/79/24 36/80/24 34/66/24 38/73/24
o nose.003_Cube.234
v 1.200000 -0.190000 0.200000
v 1.200000 0.610000 0.200000
v 0.800000 -0.190000 0.200000
v 0.800000 0.610000 0.200000
v 1.200000 -0.190000 -0.200000
v 1.200000 0.610000 -0.200000
v 0.800000 -0.190000 -0.200000
v 0.800000 0.610000 -0.200000
v 1.292061 0.059579 -0.055287
v 1.292061 0.152117 -0.055287
v 1.199522 0.059579 -0.055287
v 1.199522 0.152117 -0.055287
v 1.292061 0.059579 -0.147825
v 1.292061 0.152117 -0.147825
v 1.199522 0.059579 -0.147825
v 1.199522 0.152117 -0.147825
vt 0.406250 0.953125
vt 0.406250 0.984375
vt 0.375000 0.984375
vt 0.375000 0.953125
vt 0.500000 0.953125
vt 0.500000 0.984375
vt 0.468750 0.984375
vt 0.468750 0.953125
vt 0.437500 0.984375
vt 0.437500 0.953125
vt 0.468750 1.000000
vt 0.437500 1.000000
vt 0.437500 0.984375
vt 0.468750 0.984375
vt 0.437500 1.000000
vt 0.406250 1.000000
vt 0.015625 0.984375
vt 0.015625 0.992188
vt 0.000000 0.992188
vt 0.000000 0.984375
vt 0.062500 0.984375
vt 0.062500 0.992188
vt 0.046875 0.992188
vt 0.046875 0.984375
vt 0.031250 0.992188
vt 0.031250 0.984375
vt 0.046875 1.000000
vt 0.031250 1.000000
vt 0.031250 0.992188
vt 0.046875 0.992188
vt 0.031250 1.000000
vt 0.015625 1.000000
vn -0.0000 0.0000 1.0000
vn -1.0000 0.0000 0.0000
vn 0.0000 0.0000 -1.0000
vn 1.0000 0.0000 0.0000
vn 0.0000 -1.0000 0.0000
vn 0.0000 1.0000 0.0000
usemtl Materials/Witch.png
s off
f 41/81/25 42/82/25 44/83/25 43/84/25
f 43/85/26 44/86/26 48/87/26 47/88/26
f 47/88/27 48/87/27 46/89/27 45/90/27
f 45/90/28 46/89/28 42/82/28 41/81/28
f 43/91/29 47/92/29 45/93/29 41/94/29
f 48/95/30 44/96/30 42/82/30 46/89/30
f 49/97/25 50/98/25 52/99/25 51/100/25
f 51/101/26 52/102/26 56/103/26 55/104/26
f 55/104/27 56/103/27 54/105/27 53/106/27
f 53/106/28 54/105/28 50/98/28 49/97/28
f 51/107/29 55/108/29 53/109/29 49/110/29
f 56/111/30 52/112/30 50/98/30 54/105/30
