# Blender v3.0.1 OBJ File: 'Minecraft Monsters.blend'
# www.blender.org
mtllib HeadGib.mtl
o head.006_Cube.025
v 0.800000 -1.000000 0.800000
v 0.800000 1.000000 0.800000
v -0.800000 -1.000000 0.800000
v -0.800000 1.000000 0.800000
v 0.800000 -1.000000 -0.800000
v 0.800000 1.000000 -0.800000
v -0.800000 -1.000000 -0.800000
v -0.800000 1.000000 -0.800000
vt 0.125000 0.859375
vt 0.125000 0.937500
vt 0.000000 0.937500
vt 0.000000 0.859375
vt 0.500000 0.859375
vt 0.500000 0.937500
vt 0.375000 0.937500
vt 0.375000 0.859375
vt 0.250000 0.937500
vt 0.250000 0.859375
vt 0.375000 1.000000
vt 0.250000 1.000000
vt 0.250000 0.937500
vt 0.375000 0.937500
vt 0.250000 1.000000
vt 0.125000 1.000000
vn -0.0000 0.0000 1.0000
vn -1.0000 0.0000 -0.0000
vn 0.0000 0.0000 -1.0000
vn 1.0000 0.0000 0.0000
vn 0.0000 -1.0000 0.0000
vn 0.0000 1.0000 0.0000
usemtl Materials/Witch.png
s off
f 1/1/1 2/2/1 4/3/1 3/4/1
f 3/5/2 4/6/2 8/7/2 7/8/2
f 7/8/3 8/7/3 6/9/3 5/10/3
f 5/10/4 6/9/4 2/2/4 1/1/4
f 3/11/5 7/12/5 5/13/5 1/14/5
f 8/15/6 4/16/6 2/2/6 6/9/6
o nose.004_Cube.028
v 1.200000 -1.190000 0.200000
v 1.200000 -0.390000 0.200000
v 0.800000 -1.190000 0.200000
v 0.800000 -0.390000 0.200000
v 1.200000 -1.190000 -0.200000
v 1.200000 -0.390000 -0.200000
v 0.800000 -1.190000 -0.200000
v 0.800000 -0.390000 -0.200000
v 1.292061 -0.940421 -0.055287
v 1.292061 -0.847883 -0.055287
v 1.199522 -0.940421 -0.055287
v 1.199522 -0.847883 -0.055287
v 1.292061 -0.940421 -0.147825
v 1.292061 -0.847883 -0.147825
v 1.199522 -0.940421 -0.147825
v 1.199522 -0.847883 -0.147825
vt 0.406250 0.953125
vt 0.406250 0.984375
vt 0.375000 0.984375
vt 0.375000 0.953125
vt 0.500000 0.953125
vt 0.500000 0.984375
vt 0.468750 0.984375
vt 0.468750 0.953125
vt 0.437500 0.984375
vt 0.437500 0.953125
vt 0.468750 1.000000
vt 0.437500 1.000000
vt 0.437500 0.984375
vt 0.468750 0.984375
vt 0.437500 1.000000
vt 0.406250 1.000000
vt 0.015625 0.984375
vt 0.015625 0.992188
vt 0.000000 0.992188
vt 0.000000 0.984375
vt 0.062500 0.984375
vt 0.062500 0.992188
vt 0.046875 0.992188
vt 0.046875 0.984375
vt 0.031250 0.992188
vt 0.031250 0.984375
vt 0.046875 1.000000
vt 0.031250 1.000000
vt 0.031250 0.992188
vt 0.046875 0.992188
vt 0.031250 1.000000
vt 0.015625 1.000000
vn -0.0000 0.0000 1.0000
vn -1.0000 0.0000 0.0000
vn 0.0000 0.0000 -1.0000
vn 1.0000 0.0000 0.0000
vn 0.0000 -1.0000 0.0000
vn 0.0000 1.0000 0.0000
usemtl Materials/Witch.png
s off
f 9/17/7 10/18/7 12/19/7 11/20/7
f 11/21/8 12/22/8 16/23/8 15/24/8
f 15/24/9 16/23/9 14/25/9 13/26/9
f 13/26/10 14/25/10 10/18/10 9/17/10
f 11/27/11 15/28/11 13/29/11 9/30/11
f 16/31/12 12/32/12 10/18/12 14/25/12
f 17/33/7 18/34/7 20/35/7 19/36/7
f 19/37/8 20/38/8 24/39/8 23/40/8
f 23/40/9 24/39/9 22/41/9 21/42/9
f 21/42/10 22/41/10 18/34/10 17/33/10
f 19/43/11 23/44/11 21/45/11 17/46/11
f 24/47/12 20/48/12 18/34/12 22/41/12
