# Blender 4.3.2
# www.blender.org
mtllib StrayBody.mtl
o StrayBody
v 0.450000 -1.200000 0.850000
v 0.450000 1.200000 0.850000
v -0.450000 -1.200000 0.850000
v -0.450000 1.200000 0.850000
v 0.450000 -1.200000 -0.850000
v 0.450000 1.200000 -0.850000
v -0.450000 -1.200000 -0.850000
v -0.450000 1.200000 -0.850000
vn -0.0000 -0.0000 1.0000
vn -1.0000 -0.0000 -0.0000
vn -0.0000 -0.0000 -1.0000
vn 1.0000 -0.0000 -0.0000
vn -0.0000 -1.0000 -0.0000
vn -0.0000 1.0000 -0.0000
vt 0.312500 0.000000
vt 0.312500 0.375000
vt 0.250000 0.375000
vt 0.250000 0.000000
vt 0.625000 0.000000
vt 0.625000 0.375000
vt 0.500000 0.375000
vt 0.500000 0.000000
vt 0.437500 0.375000
vt 0.437500 0.000000
vt 0.562500 0.500000
vt 0.437500 0.500000
vt 0.562500 0.375000
vt 0.312500 0.500000
s 0
usemtl Materials/Stray_Overlay.png
f 1/1/1 2/2/1 4/3/1 3/4/1
f 3/5/2 4/6/2 8/7/2 7/8/2
f 7/8/3 8/7/3 6/9/3 5/10/3
f 5/10/4 6/9/4 2/2/4 1/1/4
f 3/11/5 7/12/5 5/9/5 1/13/5
f 8/12/6 4/14/6 2/2/6 6/9/6
