# Blender v2.83.3 OBJ File: 'Minecraft Monsters.blend'
# www.blender.org
mtllib StrayArm.mtl
v 0.400000 -2.000000 0.400000
v 0.400000 0.400000 0.400000
v -0.400000 -2.000000 0.400000
v -0.400000 0.400000 0.400000
v 0.400000 -2.000000 -0.400000
v 0.400000 0.400000 -0.400000
v -0.400000 -2.000000 -0.400000
v -0.400000 0.400000 -0.400000
vt 0.687500 -0.000000
vt 0.625000 -0.000000
vt 0.625000 0.375000
vt 0.687500 0.375000
vt 0.875000 -0.000000
vt 0.812500 -0.000000
vt 0.812500 0.375000
vt 0.875000 0.375000
vt 0.750000 -0.000000
vt 0.750000 0.375000
vt 0.812500 0.500000
vt 0.812500 0.375000
vt 0.750000 0.375000
vt 0.750000 0.500000
vt 0.750000 0.500000
vt 0.687500 0.500000
vn 0.0000 0.0000 -1.0000
vn 1.0000 0.0000 0.0000
vn -0.0000 0.0000 1.0000
vn -1.0000 0.0000 -0.0000
vn 0.0000 1.0000 0.0000
vn 0.0000 -1.0000 0.0000
usemtl Graphics/Stray_Overlay.png
s off
f 1/1/1 3/2/1 4/3/1 2/4/1
f 3/5/2 7/6/2 8/7/2 4/8/2
f 7/6/3 5/9/3 6/10/3 8/7/3
f 5/9/4 1/1/4 2/4/4 6/10/4
f 3/11/5 1/12/5 5/13/5 7/14/5
f 8/15/6 6/10/6 2/4/6 4/16/6
