# Blender v3.0.1 OBJ File: 'Minecraft Monsters.blend'
# www.blender.org
mtllib ArmorBootR.mtl
o Armor_BR.001_Cube.197
v 0.599960 -2.499900 0.600000
v 0.599960 -1.200000 0.600000
v -0.599960 -2.499900 0.600000
v -0.599960 -1.200000 0.600000
v 0.599960 -2.500000 -0.500000
v 0.599960 -1.200100 -0.500000
v -0.599960 -2.500000 -0.500000
v -0.599960 -1.200100 -0.500000
vt 0.062500 0.000000
vt 0.062500 0.187500
vt 0.000000 0.187500
vt 0.000000 0.000000
vt 0.250000 0.000000
vt 0.250000 0.187500
vt 0.187500 0.187500
vt 0.187500 0.000000
vt 0.125000 0.187500
vt 0.125000 0.000000
vt 0.187500 0.500000
vt 0.125000 0.500000
vt 0.125000 0.375000
vt 0.187500 0.375000
vt 0.062500 0.312500
vt 0.000000 0.312500
vt 0.000000 0.187500
vt 0.062500 0.187500
vn -0.0000 0.0000 1.0000
vn -1.0000 0.0000 -0.0000
vn 0.0000 0.0000 -1.0000
vn 1.0000 0.0000 0.0000
vn -0.0000 -1.0000 0.0001
vn 0.0000 1.0000 -0.0001
s off
f 1/1/1 2/2/1 4/3/1 3/4/1
f 3/5/2 4/6/2 8/7/2 7/8/2
f 7/8/3 8/7/3 6/9/3 5/10/3
f 5/10/4 6/9/4 2/2/4 1/1/4
f 3/11/5 7/12/5 5/13/5 1/14/5
f 8/15/6 4/16/6 2/17/6 6/18/6
