# Blender v3.0.1 OBJ File: 'Minecraft Monsters.blend'
# www.blender.org
mtllib ArmorLegLeft.mtl
o Armor_LL.001_Cube.194
v 0.490000 -1.849881 0.400000
v 0.490000 0.100119 0.400000
v -0.490000 -1.849881 0.400000
v -0.490000 0.100119 0.400000
v 0.490000 -1.849881 -0.489999
v 0.490000 0.100119 -0.489999
v -0.490000 -1.849881 -0.490000
v -0.490000 0.100119 -0.490000
vt 0.125000 0.093750
vt 0.125000 0.374998
vt 0.187500 0.374998
vt 0.187500 0.093750
vt 0.250000 0.374998
vt 0.250000 0.093750
vt 0.000000 0.093750
vt 0.000000 0.374998
vt 0.062500 0.374998
vt 0.062500 0.093750
vt 0.125000 0.500484
vt 0.062500 0.500484
vt 0.062500 0.374998
vt 0.125000 0.374998
vn -0.0000 0.0000 1.0000
vn -1.0000 0.0000 -0.0000
vn 0.0000 0.0000 -1.0000
vn 1.0000 0.0000 0.0000
vn 0.0000 1.0000 -0.0000
#usemtl armor_2
s off
f 1/1/1 2/2/1 4/3/1 3/4/1
f 3/4/2 4/3/2 8/5/2 7/6/2
f 7/7/3 8/8/3 6/9/3 5/10/3
f 5/10/4 6/9/4 2/2/4 1/1/4
f 8/11/5 4/12/5 2/13/5 6/14/5
