# Blender v3.0.1 OBJ File: 'Minecraft Monsters.blend'
# www.blender.org
mtllib ArmorBootL.mtl
o Armor_BL.001_Cube.198
v 0.599960 -2.499900 -0.600000
v 0.599960 -1.200000 -0.600000
v -0.599960 -2.499900 -0.600000
v -0.599960 -1.200000 -0.600000
v 0.599960 -2.500000 0.500000
v 0.599960 -1.200100 0.500000
v -0.599960 -2.500000 0.500000
v -0.599960 -1.200100 0.500000
vt 0.062500 0.000000
vt 0.000000 0.000000
vt 0.000000 0.187500
vt 0.062500 0.187500
vt 0.250000 0.000000
vt 0.187500 0.000000
vt 0.187500 0.187500
vt 0.250000 0.187500
vt 0.125000 0.000000
vt 0.125000 0.187500
vt 0.187500 0.500000
vt 0.187500 0.375000
vt 0.125000 0.375000
vt 0.125000 0.500000
vt 0.062500 0.312500
vt 0.062500 0.187500
vt 0.000000 0.187500
vt 0.000000 0.312500
vn -0.0000 0.0000 -1.0000
vn -1.0000 0.0000 0.0000
vn 0.0000 0.0000 1.0000
vn 1.0000 0.0000 -0.0000
vn -0.0000 -1.0000 -0.0001
vn 0.0000 1.0000 0.0001
# usemtl armor_1
s off
f 1/1/1 3/2/1 4/3/1 2/4/1
f 3/5/2 7/6/2 8/7/2 4/8/2
f 7/6/3 5/9/3 6/10/3 8/7/3
f 5/9/4 1/1/4 2/4/4 6/10/4
f 3/11/5 1/12/5 5/13/5 7/14/5
f 8/15/6 6/16/6 2/17/6 4/18/6
