# Blender v3.0.0 OBJ File: 'Minecraft Blocks.blend'
# www.blender.org
mtllib StackS3.mtl
o ItemS3_Cube.043
v 16.000000 32.000000 -12.000000
v 16.000000 0.000000 -12.000000
v 16.000000 32.000000 20.000000
v 16.000000 0.000000 20.000000
v -16.000000 32.000000 -12.000000
v -16.000000 0.000000 -12.000000
v -16.000000 32.000000 20.000000
v -16.000000 0.000000 20.000000
vt 1.000000 0.250000
vt 1.000000 0.500000
vt 0.500000 0.500000
vt 0.500000 0.250000
vt 1.000000 0.500000
vt 1.000000 0.750000
vt 0.500000 0.750000
vt 0.500000 0.500000
vt 0.000000 0.750000
vt -0.000000 0.500000
vt 0.500000 0.250000
vt 0.500000 0.500000
vt 0.000000 0.500000
vt -0.000000 0.250000
vt 0.500000 0.750000
vt 0.500000 1.000000
vt 0.000000 1.000000
vt 0.000000 0.750000
vt 1.000000 0.749634
vt 1.000000 1.000000
vt 0.500000 0.749634
vn 0.0000 1.0000 0.0000
vn 0.0000 0.0000 1.0000
vn -1.0000 0.0000 0.0000
vn 0.0000 -1.0000 0.0000
vn 1.0000 0.0000 0.0000
vn 0.0000 0.0000 -1.0000
usemtl Materials/Blocks/TNT
s off
f 1/1/1 5/2/1 7/3/1 3/4/1
f 4/5/2 3/6/2 7/7/2 8/8/2
f 8/8/3 7/7/3 5/9/3 6/10/3
f 6/11/4 2/12/4 4/13/4 8/14/4
f 2/15/5 1/16/5 3/17/5 4/18/5
f 6/19/6 5/20/6 1/16/6 2/21/6
o ItemS3.001_Cube.044
v 22.000000 35.000000 -23.000000
v 22.000000 3.000000 -23.000000
v 22.000000 35.000000 9.000000
v 22.000000 3.000000 9.000000
v -10.000000 35.000000 -23.000000
v -10.000000 3.000000 -23.000000
v -10.000000 35.000000 9.000000
v -10.000000 3.000000 9.000000
vt 1.000000 0.250000
vt 1.000000 0.500000
vt 0.500000 0.500000
vt 0.500000 0.250000
vt 1.000000 0.500000
vt 1.000000 0.750000
vt 0.500000 0.750000
vt 0.500000 0.500000
vt 0.000000 0.750000
vt -0.000000 0.500000
vt 0.500000 0.250000
vt 0.500000 0.500000
vt 0.000000 0.500000
vt -0.000000 0.250000
vt 0.500000 0.750000
vt 0.500000 1.000000
vt 0.000000 1.000000
vt 0.000000 0.750000
vt 1.000000 0.749634
vt 1.000000 1.000000
vt 0.500000 0.749634
vn 0.0000 1.0000 0.0000
vn 0.0000 0.0000 1.0000
vn -1.0000 0.0000 0.0000
vn 0.0000 -1.0000 0.0000
vn 1.0000 0.0000 0.0000
vn 0.0000 0.0000 -1.0000
usemtl Materials/Blocks/TNT
s off
f 9/22/7 13/23/7 15/24/7 11/25/7
f 12/26/8 11/27/8 15/28/8 16/29/8
f 16/29/9 15/28/9 13/30/9 14/31/9
f 14/32/10 10/33/10 12/34/10 16/35/10
f 10/36/11 9/37/11 11/38/11 12/39/11
f 14/40/12 13/41/12 9/37/12 10/42/12
o ItemS3.002_Cube.045
v 35.000000 53.000000 -9.000000
v 35.000000 21.000000 -9.000000
v 35.000000 53.000000 23.000000
v 35.000000 21.000000 23.000000
v 3.000000 53.000000 -9.000000
v 3.000000 21.000000 -9.000000
v 3.000000 53.000000 23.000000
v 3.000000 21.000000 23.000000
vt 1.000000 0.250000
vt 1.000000 0.500000
vt 0.500000 0.500000
vt 0.500000 0.250000
vt 1.000000 0.500000
vt 1.000000 0.750000
vt 0.500000 0.750000
vt 0.500000 0.500000
vt 0.000000 0.750000
vt -0.000000 0.500000
vt 0.500000 0.250000
vt 0.500000 0.500000
vt 0.000000 0.500000
vt -0.000000 0.250000
vt 0.500000 0.750000
vt 0.500000 1.000000
vt 0.000000 1.000000
vt 0.000000 0.750000
vt 1.000000 0.749634
vt 1.000000 1.000000
vt 0.500000 0.749634
vn 0.0000 1.0000 0.0000
vn 0.0000 0.0000 1.0000
vn -1.0000 0.0000 0.0000
vn 0.0000 -1.0000 0.0000
vn 1.0000 0.0000 0.0000
vn 0.0000 0.0000 -1.0000
usemtl Materials/Blocks/TNT
s off
f 17/43/13 21/44/13 23/45/13 19/46/13
f 20/47/14 19/48/14 23/49/14 24/50/14
f 24/50/15 23/49/15 21/51/15 22/52/15
f 22/53/16 18/54/16 20/55/16 24/56/16
f 18/57/17 17/58/17 19/59/17 20/60/17
f 22/61/18 21/62/18 17/58/18 18/63/18
