# Blender v3.0.0 OBJ File: 'Minecraft Blocks.blend'
# www.blender.org
mtllib Stack2.mtl
o Item2_1_Cube.011
v 13.543894 32.000000 -21.135494
v 13.543894 0.000000 -21.135494
v 13.543894 32.000000 10.864505
v 13.543894 0.000000 10.864505
v -18.456106 32.000000 -21.135494
v -18.456106 0.000000 -21.135494
v -18.456106 32.000000 10.864505
v -18.456106 0.000000 10.864505
vt 1.000000 0.000000
vt 1.000000 1.000000
vt -0.000000 1.000000
vt 0.000000 -0.000000
vt 1.000000 -0.000000
vt 1.000000 1.000000
vt -0.000000 0.000000
vt 1.000000 -0.000000
vt 1.000000 1.000000
vt 0.000000 1.000000
vt -0.000000 0.000000
vt 1.000000 0.000000
vt 1.000000 1.000000
vt 0.000000 1.000000
vt 1.000000 0.000000
vt 1.000000 1.000000
vt 0.000000 1.000000
vt 0.000000 0.000000
vt 0.000000 1.000000
vt -0.000000 0.000000
vn 0.0000 1.0000 0.0000
vn 0.0000 0.0000 1.0000
vn -1.0000 0.0000 0.0000
vn 0.0000 -1.0000 0.0000
vn 1.0000 0.0000 0.0000
vn 0.0000 0.0000 -1.0000
usemtl Materials/Blocks/Gold
s off
f 1/1/1 5/2/1 7/3/1 3/4/1
f 4/5/2 3/6/2 7/3/2 8/7/2
f 8/8/3 7/9/3 5/10/3 6/11/3
f 6/12/4 2/13/4 4/14/4 8/7/4
f 2/15/5 1/16/5 3/17/5 4/18/5
f 6/12/6 5/2/6 1/19/6 2/20/6
o Item2_2_Cube.012
v 17.543894 37.000000 -15.135495
v 17.543894 5.000000 -15.135495
v 17.543894 37.000000 16.864506
v 17.543894 5.000000 16.864506
v -14.456106 37.000000 -15.135495
v -14.456106 5.000000 -15.135495
v -14.456106 37.000000 16.864506
v -14.456106 5.000000 16.864506
vt 1.000000 0.000000
vt 1.000000 1.000000
vt -0.000000 1.000000
vt 0.000000 -0.000000
vt 1.000000 -0.000000
vt 1.000000 1.000000
vt -0.000000 0.000000
vt 1.000000 -0.000000
vt 1.000000 1.000000
vt 0.000000 1.000000
vt -0.000000 0.000000
vt 1.000000 0.000000
vt 1.000000 1.000000
vt 0.000000 1.000000
vt 1.000000 0.000000
vt 1.000000 1.000000
vt 0.000000 1.000000
vt 0.000000 0.000000
vt 0.000000 1.000000
vt -0.000000 0.000000
vn 0.0000 1.0000 0.0000
vn 0.0000 0.0000 1.0000
vn -1.0000 0.0000 0.0000
vn 0.0000 -1.0000 0.0000
vn 1.0000 0.0000 0.0000
vn 0.0000 0.0000 -1.0000
usemtl Materials/Blocks/Gold
s off
f 9/21/7 13/22/7 15/23/7 11/24/7
f 12/25/8 11/26/8 15/23/8 16/27/8
f 16/28/9 15/29/9 13/30/9 14/31/9
f 14/32/10 10/33/10 12/34/10 16/27/10
f 10/35/11 9/36/11 11/37/11 12/38/11
f 14/32/12 13/22/12 9/39/12 10/40/12
