# Blender v3.0.1 OBJ File: 'Minecraft Blocks.blend'
# www.blender.org
mtllib FireBlock.mtl
o Fire_Cube.026
v 16.000000 32.000000 -16.000000
v 16.000000 0.000000 -16.000000
v 16.000000 32.000000 16.000000
v 16.000000 0.000000 16.000000
v -16.000000 32.000000 -16.000000
v -16.000000 0.000000 -16.000000
v -16.000000 32.000000 16.000000
v -16.000000 0.000000 16.000000
v 16.000000 32.000000 4.000000
v 16.000000 0.000000 -16.000000
v -16.000000 32.000000 4.000000
v -16.000000 0.000000 -16.000000
v 16.000006 0.000000 -15.999996
v -3.999994 32.000000 -16.000000
v 15.999996 0.000000 16.000006
v -4.000006 32.000000 16.000000
v -16.000000 32.000000 -4.000004
v -16.000004 0.000000 15.999998
v 16.000000 32.000000 -3.999996
v 15.999998 0.000000 16.000004
v -16.000002 0.000000 16.000000
v 3.999998 32.000000 16.000000
v -16.000000 0.000000 -16.000002
v 4.000002 32.000000 -16.000000
vt 1.000000 -0.000000
vt 1.000000 1.000000
vt 0.000000 1.000000
vt -0.000000 0.000000
vt 1.000000 -0.000000
vt 1.000000 1.000000
vt 0.000000 1.000000
vt -0.000000 0.000000
vt 1.000000 0.000000
vt 1.000000 1.000000
vt 0.000000 1.000000
vt 0.000000 0.000000
vt 1.000000 -0.000000
vt 1.000000 1.000000
vt 0.000000 1.000000
vt -0.000000 0.000000
vt 1.000000 -0.000000
vt 1.000000 1.000000
vt 0.000000 1.000000
vt -0.000000 0.000000
vt 1.000000 -0.000000
vt 1.000000 1.000000
vt 0.000000 1.000000
vt -0.000000 0.000000
vt 1.000000 -0.000000
vt 1.000000 1.000000
vt 0.000000 1.000000
vt -0.000000 0.000000
vt 1.000000 -0.000000
vt 1.000000 1.000000
vt 0.000000 1.000000
vt -0.000000 0.000000
vn 0.0000 0.0000 1.0000
vn -1.0000 0.0000 0.0000
vn 1.0000 0.0000 0.0000
vn 0.0000 0.0000 -1.0000
vn 0.0000 0.5300 -0.8480
vn 0.8480 0.5300 0.0000
vn -0.0000 0.5300 0.8480
vn -0.8480 0.5300 -0.0000
s off
f 4/1/1 3/2/1 7/3/1 8/4/1
f 8/5/2 7/6/2 5/7/2 6/8/2
f 2/9/3 1/10/3 3/11/3 4/12/3
f 6/13/4 5/14/4 1/15/4 2/16/4
f 12/17/5 11/18/5 9/19/5 10/20/5
f 13/21/6 14/22/6 16/23/6 15/24/6
f 20/25/7 19/26/7 17/27/7 18/28/7
f 21/29/8 22/30/8 24/31/8 23/32/8
